<?xml version="1.0" encoding="utf-8"?>
<!-- Generator: Adobe Illustrator 21.0.0, SVG Export Plug-In . SVG Version: 6.00 Build 0)  -->
<svg version="1.1" id="Outline_Icons" xmlns="http://www.w3.org/2000/svg" xmlns:xlink="http://www.w3.org/1999/xlink" x="0px"
	 y="0px" viewBox="0 0 24 24" style="enable-background:new 0 0 24 24;" xml:space="preserve">
<g>
	<path d="M12,0C5.4,0,0,5.4,0,12s5.4,12,12,12s12-5.4,12-12S18.6,0,12,0z M12,23C5.9,23,1,18.1,1,12C1,5.9,5.9,1,12,1s11,4.9,11,11
		C23,18.1,18.1,23,12,23z"/>
	<path d="M13.7,13c0.2-0.3,0.3-0.6,0.3-1c0-1.1-0.9-2-2-2V6.5C12,6.2,11.8,6,11.5,6S11,6.2,11,6.5v3.8c-0.6,0.3-1,1-1,1.7
		c0,1.1,0.9,2,2,2c0.4,0,0.7-0.1,1-0.3l4.6,4.6c0.1,0.1,0.2,0.1,0.4,0.1s0.3,0,0.4-0.1c0.2-0.2,0.2-0.5,0-0.7L13.7,13z M11,12
		c0-0.6,0.4-1,1-1s1,0.4,1,1c0,0.3-0.1,0.5-0.3,0.7c0,0,0,0,0,0c0,0,0,0,0,0C12.5,12.9,12.3,13,12,13C11.4,13,11,12.6,11,12z"/>
</g>
</svg>
