<?xml version="1.0" encoding="utf-8"?>
<!-- Generator: Adobe Illustrator 21.0.0, SVG Export Plug-In . SVG Version: 6.00 Build 0)  -->
<svg version="1.1" id="Layer_1" xmlns="http://www.w3.org/2000/svg" xmlns:xlink="http://www.w3.org/1999/xlink" x="0px" y="0px"
	 viewBox="0 0 24 24" style="enable-background:new 0 0 24 24;" xml:space="preserve">
<style type="text/css">
	.st0{fill:none;stroke:#000000;stroke-linejoin:round;stroke-miterlimit:10;}
	.st1{fill:none;stroke:#000000;stroke-linecap:round;stroke-linejoin:round;stroke-miterlimit:10;}
</style>
<g>
	<path class="st0" d="M3.6,22.6c-0.6,0.6-1.5,0.6-2.1,0c-0.6-0.6-0.6-1.5,0-2.1L8,13.9l2.1,2.1C10.1,16,3.6,22.6,3.6,22.6z"/>
	<path class="st1" d="M7,12.8l4.2,4.2"/>
	<path class="st0" d="M19.8,4.2L9.1,14.9"/>
	<path class="st0" d="M20.9,5.4L18.5,3L22,0.5L23.5,2L20.9,5.4z M11.9,9.8L8.1,6.1c0.6-1.5,0.3-3.2-0.9-4.4C6.1,0.5,4.4,0.2,3,0.8
		l1.9,2.1v2h-2L0.8,3C0.2,4.5,0.4,6.2,1.6,7.4C2.8,8.6,4.6,8.8,6,8.2l3.7,3.7 M11.9,14.1l3.7,3.7c-0.6,1.5-0.3,3.2,0.9,4.4
		c1.2,1.2,2.9,1.5,4.4,0.9l-2-2.1v-2h2l2.2,2c0.6-1.5,0.3-3.2-0.9-4.4c-1.2-1.2-2.9-1.5-4.4-0.9L14,11.9"/>
</g>
</svg>
