<?xml version="1.0" encoding="utf-8"?>
<!-- Generator: Adobe Illustrator 21.0.0, SVG Export Plug-In . SVG Version: 6.00 Build 0)  -->
<svg version="1.1" id="Outline_Icons" xmlns="http://www.w3.org/2000/svg" xmlns:xlink="http://www.w3.org/1999/xlink" x="0px"
	 y="0px" viewBox="0 0 24 24" style="enable-background:new 0 0 24 24;" xml:space="preserve">
<path d="M23,11c0-1.1-0.9-2-2-2h-7.4c0.3-1.2,0.9-3.7,0.9-5.3c0-2-1.2-2.8-2.3-2.8c-1,0-1.7,0.7-1.7,1.6c0,4.4-3.7,7.5-7,7.5h-3
	C0.2,10,0,10.2,0,10.5v9C0,19.8,0.2,20,0.5,20c4.6,0,6.2,0.7,7.4,1.2c0.9,0.4,1.8,0.8,3.6,0.8H18c1.1,0,2-0.9,2-2
	c0-0.4-0.1-0.8-0.3-1.1c0.8-0.3,1.3-1,1.3-1.9c0-0.4-0.1-0.8-0.3-1.1c0.8-0.3,1.3-1,1.3-1.9c0-0.4-0.1-0.8-0.3-1.1
	C22.4,12.6,23,11.9,23,11z M21,12h-1c-0.3,0-0.5,0.2-0.5,0.5S19.7,13,20,13c0.6,0,1,0.4,1,1s-0.4,1-1,1h-1c-0.3,0-0.5,0.2-0.5,0.5
	S18.7,16,19,16c0.6,0,1,0.4,1,1s-0.4,1-1,1h-1c-0.3,0-0.5,0.2-0.5,0.5S17.7,19,18,19c0.6,0,1,0.4,1,1s-0.4,1-1,1h-6.5
	c-1.6,0-2.3-0.3-3.2-0.7C7,19.7,5.4,19.1,1,19v-8h2.5c3.8,0,8-3.5,8-8.5c0-0.4,0.4-0.6,0.7-0.6c0.6,0,1.3,0.5,1.3,1.8
	c0,1.9-1,5.6-1,5.7c0,0.1,0,0.3,0.1,0.4C12.7,9.9,12.8,10,13,10h8c0.6,0,1,0.4,1,1S21.6,12,21,12z"/>
</svg>
