<?xml version="1.0" encoding="utf-8"?>
<!-- Generator: Adobe Illustrator 21.0.0, SVG Export Plug-In . SVG Version: 6.00 Build 0)  -->
<svg version="1.1" id="Outline_Icons" xmlns="http://www.w3.org/2000/svg" xmlns:xlink="http://www.w3.org/1999/xlink" x="0px"
	 y="0px" viewBox="0 0 24 24" style="enable-background:new 0 0 24 24;" xml:space="preserve">
<g>
	<path d="M16.5,0h-9C6.1,0,5,1.1,5,2.5v19C5,22.9,6.1,24,7.5,24h9c1.4,0,2.5-1.1,2.5-2.5v-19C19,1.1,17.9,0,16.5,0z M6,5h12v14H6V5z
		 M7.5,1h9C17.3,1,18,1.7,18,2.5V4H6V2.5C6,1.7,6.7,1,7.5,1z M16.5,23h-9C6.7,23,6,22.3,6,21.5V20h12v1.5C18,22.3,17.3,23,16.5,23z"
		/>
	<path d="M9.5,3h5C14.8,3,15,2.8,15,2.5S14.8,2,14.5,2h-5C9.2,2,9,2.2,9,2.5S9.2,3,9.5,3z"/>
	<circle cx="12" cy="21.5" r="1"/>
	<path d="M14.3,7.5c-0.8,0-1.7,0.4-2.3,1.4c-0.6-1-1.5-1.4-2.3-1.4c-1.3,0-2.7,1.1-2.7,3c0,2.6,4.2,5.7,4.7,6
		c0.1,0.1,0.2,0.1,0.3,0.1s0.2,0,0.3-0.1c0.5-0.3,4.7-3.5,4.7-6C17,8.6,15.6,7.5,14.3,7.5z M12,15.5c-1.3-1-4-3.4-4-5
		c0-1.2,0.9-2,1.7-2c0.8,0,1.5,0.7,1.8,1.8c0.1,0.4,0.9,0.4,1,0c0.3-1.1,0.9-1.8,1.8-1.8c0.9,0,1.7,0.7,1.7,2
		C16,12.1,13.3,14.5,12,15.5z"/>
</g>
</svg>
